<svg width="300" height="61" viewBox="0 0 300 61" fill="none" xmlns="http://www.w3.org/2000/svg">
<path d="M29.9406 37.8039H15.9208L13.8416 44.1603H0L15.3861 2.10094H30.5941L45.9208 44.1603H32.0198L29.9406 37.8039ZM26.7327 27.8831L22.9307 16.1801L19.1287 27.8831H26.7327Z" fill="url(#paint0_linear_5_580)"/>
<path d="M60.4079 15.2297C61.2396 13.6851 62.4277 12.4772 63.9722 11.6059C65.5564 10.695 67.4376 10.2396 69.6158 10.2396C72.2297 10.2396 74.5861 10.9326 76.6851 12.3188C78.7841 13.6653 80.4277 15.6455 81.6158 18.2594C82.8435 20.8336 83.4574 23.8831 83.4574 27.4079C83.4574 30.9326 82.8435 34.0019 81.6158 36.6158C80.4277 39.1901 78.7841 41.1702 76.6851 42.5564C74.5861 43.9029 72.2297 44.5762 69.6158 44.5762C67.4376 44.5762 65.5564 44.1405 63.9722 43.2693C62.4277 42.3584 61.2396 41.1306 60.4079 39.5861V60.2H47.2198V10.6554H60.4079V15.2297ZM70.091 27.4079C70.091 25.6257 69.6356 24.2396 68.7247 23.2495C67.8138 22.2594 66.6455 21.7643 65.2198 21.7643C63.794 21.7643 62.6257 22.2594 61.7148 23.2495C60.8039 24.2396 60.3485 25.6257 60.3485 27.4079C60.3485 29.19 60.8039 30.5762 61.7148 31.5663C62.6257 32.5564 63.794 33.0514 65.2198 33.0514C66.6455 33.0514 67.8138 32.5564 68.7247 31.5663C69.6356 30.5762 70.091 29.19 70.091 27.4079Z" fill="url(#paint1_linear_5_580)"/>
<path d="M118.336 27.1108C118.336 28.0217 118.276 28.893 118.157 29.7247H96.9494C97.1475 32.6158 98.3554 34.0613 100.573 34.0613C101.999 34.0613 103.029 33.4079 103.662 32.1009H117.623C117.147 34.4772 116.138 36.6158 114.593 38.5168C113.088 40.3782 111.167 41.8633 108.831 42.9722C106.534 44.0415 103.999 44.5762 101.227 44.5762C97.8999 44.5762 94.9296 43.8831 92.3158 42.497C89.7415 41.1108 87.7217 39.1306 86.2564 36.5564C84.8306 33.9425 84.1177 30.893 84.1177 27.4079C84.1177 23.9227 84.8306 20.893 86.2564 18.3188C87.7217 15.7049 89.7415 13.7049 92.3158 12.3188C94.9296 10.9326 97.8999 10.2396 101.227 10.2396C104.553 10.2396 107.504 10.9326 110.078 12.3188C112.692 13.6653 114.712 15.6059 116.138 18.1405C117.603 20.6752 118.336 23.6653 118.336 27.1108ZM104.969 23.9623C104.969 22.8534 104.613 22.0217 103.9 21.4673C103.187 20.8732 102.296 20.5762 101.227 20.5762C98.89 20.5762 97.5237 21.7049 97.1276 23.9623H104.969Z" fill="url(#paint2_linear_5_580)"/>
<path d="M137.697 44.1603L132.054 36.6158L127.836 44.1603H113.341L124.569 26.5168L112.747 10.6554H127.48L133.123 18.2594L137.4 10.6554H151.895L140.311 27.8831L152.43 44.1603H137.697Z" fill="url(#paint3_linear_5_580)"/>
<path d="M186.709 2.10094V12.5564H170.195V18.3782H182.076V28.299H170.195V44.1603H157.006V2.10094H186.709Z" fill="url(#paint4_linear_5_580)"/>
<path d="M223.671 10.6554V44.1603H210.483V39.0514C209.454 40.6356 208.067 41.9227 206.325 42.9128C204.622 43.9029 202.582 44.398 200.206 44.398C196.365 44.398 193.355 43.1108 191.176 40.5366C189.038 37.9623 187.968 34.4772 187.968 30.0811V10.6554H201.097V28.4178C201.097 30.0019 201.513 31.2693 202.345 32.2198C203.216 33.1306 204.365 33.5861 205.79 33.5861C207.256 33.5861 208.404 33.1306 209.236 32.2198C210.067 31.2693 210.483 30.0019 210.483 28.4178V10.6554H223.671Z" fill="url(#paint5_linear_5_580)"/>
<path d="M250.123 10.4178C253.964 10.4178 256.955 11.7049 259.093 14.2792C261.271 16.8534 262.361 20.3386 262.361 24.7346V44.1603H249.232V26.398C249.232 24.8138 248.796 23.5663 247.925 22.6554C247.093 21.7049 245.964 21.2297 244.539 21.2297C243.073 21.2297 241.925 21.7049 241.093 22.6554C240.261 23.5663 239.846 24.8138 239.846 26.398V44.1603H226.658V10.6554H239.846V15.7643C240.875 14.1801 242.242 12.893 243.945 11.9029C245.687 10.9128 247.747 10.4178 250.123 10.4178Z" fill="url(#paint6_linear_5_580)"/>
<path d="M263.751 27.4079C263.751 23.8831 264.345 20.8336 265.533 18.2594C266.761 15.6455 268.424 13.6653 270.523 12.3188C272.622 10.9326 274.979 10.2396 277.593 10.2396C279.771 10.2396 281.632 10.695 283.177 11.6059C284.761 12.4772 285.969 13.6851 286.801 15.2297V0.199951H299.989V44.1603H286.801V39.5861C285.969 41.1306 284.761 42.3584 283.177 43.2693C281.632 44.1405 279.771 44.5762 277.593 44.5762C274.979 44.5762 272.622 43.9029 270.523 42.5564C268.424 41.1702 266.761 39.1901 265.533 36.6158C264.345 34.0019 263.751 30.9326 263.751 27.4079ZM286.86 27.4079C286.86 25.6257 286.405 24.2396 285.494 23.2495C284.583 22.2594 283.414 21.7643 281.989 21.7643C280.563 21.7643 279.395 22.2594 278.484 23.2495C277.573 24.2396 277.117 25.6257 277.117 27.4079C277.117 29.19 277.573 30.5762 278.484 31.5663C279.395 32.5564 280.563 33.0514 281.989 33.0514C283.414 33.0514 284.583 32.5564 285.494 31.5663C286.405 30.5762 286.86 29.19 286.86 27.4079Z" fill="url(#paint7_linear_5_580)"/>
<defs>
<linearGradient id="paint0_linear_5_580" x1="236.71" y1="6.76245" x2="226.854" y2="77.258" gradientUnits="userSpaceOnUse">
<stop stop-color="#6B56DF"/>
<stop offset="0.853739" stop-color="#BA4BFB"/>
</linearGradient>
<linearGradient id="paint1_linear_5_580" x1="236.71" y1="6.76245" x2="226.854" y2="77.258" gradientUnits="userSpaceOnUse">
<stop stop-color="#6B56DF"/>
<stop offset="0.853739" stop-color="#BA4BFB"/>
</linearGradient>
<linearGradient id="paint2_linear_5_580" x1="236.71" y1="6.76245" x2="226.854" y2="77.258" gradientUnits="userSpaceOnUse">
<stop stop-color="#6B56DF"/>
<stop offset="0.853739" stop-color="#BA4BFB"/>
</linearGradient>
<linearGradient id="paint3_linear_5_580" x1="236.71" y1="6.76245" x2="226.854" y2="77.258" gradientUnits="userSpaceOnUse">
<stop stop-color="#6B56DF"/>
<stop offset="0.853739" stop-color="#BA4BFB"/>
</linearGradient>
<linearGradient id="paint4_linear_5_580" x1="236.71" y1="6.76245" x2="226.854" y2="77.258" gradientUnits="userSpaceOnUse">
<stop stop-color="#6B56DF"/>
<stop offset="0.853739" stop-color="#BA4BFB"/>
</linearGradient>
<linearGradient id="paint5_linear_5_580" x1="236.71" y1="6.76245" x2="226.854" y2="77.258" gradientUnits="userSpaceOnUse">
<stop stop-color="#6B56DF"/>
<stop offset="0.853739" stop-color="#BA4BFB"/>
</linearGradient>
<linearGradient id="paint6_linear_5_580" x1="236.71" y1="6.76245" x2="226.854" y2="77.258" gradientUnits="userSpaceOnUse">
<stop stop-color="#6B56DF"/>
<stop offset="0.853739" stop-color="#BA4BFB"/>
</linearGradient>
<linearGradient id="paint7_linear_5_580" x1="236.71" y1="6.76245" x2="226.854" y2="77.258" gradientUnits="userSpaceOnUse">
<stop stop-color="#6B56DF"/>
<stop offset="0.853739" stop-color="#BA4BFB"/>
</linearGradient>
</defs>
</svg>
